# xmcd
# 
# Track frame offsets:
#     150
#     24175
#     33213
#     46983
#     61225
#     74615
#     83530
#     94440
#     103238
#     111025
#     122270
#     140395
#     150080
#     174518
#     191070
# 
# Disc length: 2680
# 
# Revision: 1
# Processed by: cddbd v1.5.2PL0 Copyright (c) Steve Scherf et al.
# Submitted via: BonkEnc v1.0.5
# 
DISCID=b80a760f
DTITLE=中川イサト - FOOTPRINTS Best of Isato Nakagawa
DYEAR=1998
DGENRE=Instrumental
TTITLE0=きつねの嫁入り
TTITLE1=セブンブリッジ
TTITLE2=オレンジ＃３
TTITLE3=加壽帝羅
TTITLE4=Opus - 1310
TTITLE5=Stray Cat Two-Step
TTITLE6=蘭
TTITLE7=堂山町の夜は更けて
TTITLE8=Water Skipper
TTITLE9=風の谷
TTITLE10=伽羅
TTITLE11=Crescent Moon
TTITLE12=海市
TTITLE13=Mah-Jong Piece
TTITLE14=檳榔樹の木陰
EXTD=YEAR: 1998
EXTT0=
EXTT1=
EXTT2=
EXTT3=
EXTT4=
EXTT5=
EXTT6=
EXTT7=
EXTT8=
EXTT9=
EXTT10=
EXTT11=
EXTT12=
EXTT13=
EXTT14=
PLAYORDER=
